<?xml version="1.0" encoding="UTF-8"?>
<svg width="59.474" height="56.647" fill="none" version="1.1" viewBox="0 0 59.474 56.647" xmlns="http://www.w3.org/2000/svg">
 <!-- Outer circle frame -->
 <!-- Sharp, angular 'H' -->
 <path d="m198.37 91.608-113.77-65.685 59.769-34.507v34.507h36v-96.861l-131.77 76.077-131.77-76.077v96.861h36v-34.507l59.772 34.508-113.77 65.686 113.77 65.685-59.77 34.507v-34.507h-36v96.86l131.77-76.077 131.77 76.077v-96.86h-36v34.507l-59.771-34.509zm-149.77-44.9 77.769 44.9-77.771 44.901-77.77-44.899z"/>
 <path d="m54.737 28.323-18.991-10.964 9.9768-5.76v5.76h6.0092v-16.168l-21.995 12.699-21.996-12.699v16.168h6.0092v-5.76l9.9773 5.7601-18.991 10.964 18.991 10.964-9.9769 5.76v-5.76h-6.0092v16.168l21.995-12.699 21.995 12.699v-16.168h-6.0092v5.76l-9.9771-5.7603zm-25-7.4948 12.981 7.4948-12.982 7.495-12.982-7.4946z" fill="#73e6cb" stroke-width=".16692"/>
</svg>
